<svg xmlns="http://www.w3.org/2000/svg" xmlns:xlink="http://www.w3.org/1999/xlink" width="1024" zoomAndPan="magnify" viewBox="0 0 768 767.999994" height="1024" preserveAspectRatio="xMidYMid meet" version="1.0"><defs><clipPath id="e1b99bf6e8"><path d="M 1 75 L 767 75 L 767 722.632812 L 1 722.632812 Z M 1 75 " clip-rule="nonzero"/></clipPath><clipPath id="fe040bf89b"><path d="M 654.394531 187.46875 C 651.074219 184.148438 647.695312 180.890625 644.257812 177.695312 C 640.816406 174.5 637.320312 171.371094 633.765625 168.304688 C 630.210938 165.238281 626.601562 162.238281 622.933594 159.304688 C 619.269531 156.371094 615.550781 153.503906 611.78125 150.707031 C 608.007812 147.910156 604.1875 145.183594 600.316406 142.527344 C 596.445312 139.871094 592.527344 137.289062 588.5625 134.777344 C 584.59375 132.265625 580.582031 129.828125 576.527344 127.464844 C 572.472656 125.097656 568.375 122.8125 564.234375 120.597656 C 560.09375 118.382812 555.914062 116.25 551.695312 114.1875 C 547.476562 112.128906 543.21875 110.148438 538.929688 108.246094 C 534.636719 106.34375 530.308594 104.519531 525.953125 102.777344 C 521.59375 101.035156 517.203125 99.371094 512.78125 97.789062 C 508.363281 96.207031 503.914062 94.707031 499.4375 93.289062 C 494.964844 91.871094 490.464844 90.539062 485.9375 89.285156 C 481.414062 88.035156 476.867188 86.863281 472.300781 85.78125 C 467.734375 84.695312 463.148438 83.695312 458.542969 82.777344 C 453.9375 81.863281 449.316406 81.03125 444.683594 80.285156 C 440.046875 79.539062 435.402344 78.878906 430.742188 78.304688 C 426.082031 77.730469 421.414062 77.242188 416.734375 76.839844 C 412.058594 76.4375 407.375 76.121094 402.6875 75.890625 C 397.996094 75.660156 393.304688 75.515625 388.613281 75.457031 C 383.917969 75.398438 379.222656 75.429688 374.53125 75.542969 C 369.835938 75.660156 365.148438 75.859375 360.460938 76.148438 C 355.777344 76.4375 351.097656 76.8125 346.425781 77.269531 C 341.753906 77.730469 337.089844 78.277344 332.4375 78.910156 C 327.785156 79.539062 323.148438 80.257812 318.523438 81.0625 C 313.898438 81.863281 309.289062 82.75 304.695312 83.722656 C 300.101562 84.695312 295.527344 85.753906 290.972656 86.894531 C 286.421875 88.035156 281.890625 89.257812 277.378906 90.566406 C 272.871094 91.871094 268.386719 93.261719 263.929688 94.734375 C 259.472656 96.207031 255.042969 97.761719 250.644531 99.398438 C 246.242188 101.035156 241.875 102.75 237.535156 104.546875 C 233.199219 106.34375 228.894531 108.21875 224.628906 110.175781 C 220.359375 112.128906 216.128906 114.164062 211.933594 116.273438 C 207.742188 118.382812 203.589844 120.570312 199.476562 122.835938 C 195.363281 125.097656 191.292969 127.4375 187.265625 129.851562 C 183.238281 132.265625 179.257812 134.75 175.324219 137.3125 C 171.386719 139.871094 167.5 142.503906 163.664062 145.207031 C 159.824219 147.910156 156.039062 150.683594 152.300781 153.527344 C 148.566406 156.371094 144.882812 159.28125 141.253906 162.257812 C 137.625 165.238281 134.050781 168.28125 130.535156 171.390625 C 127.019531 174.5 123.558594 177.675781 120.160156 180.910156 C 116.757812 184.148438 113.421875 187.449219 110.140625 190.808594 C 106.863281 194.167969 103.648438 197.585938 100.496094 201.066406 C 97.339844 204.542969 94.253906 208.082031 91.230469 211.671875 C 88.207031 215.265625 85.253906 218.910156 82.363281 222.613281 C 79.476562 226.3125 76.65625 230.066406 73.90625 233.871094 C 71.15625 237.675781 68.476562 241.53125 65.871094 245.433594 C 63.261719 249.339844 60.726562 253.289062 58.261719 257.285156 C 55.800781 261.28125 53.414062 265.324219 51.097656 269.410156 C 48.785156 273.492188 46.546875 277.621094 44.382812 281.785156 C 42.222656 285.953125 40.136719 290.160156 38.128906 294.402344 C 36.121094 298.648438 34.195312 302.929688 32.34375 307.242188 C 30.496094 311.558594 28.726562 315.90625 27.035156 320.285156 C 25.347656 324.667969 23.738281 329.074219 22.210938 333.515625 C 20.683594 337.957031 19.238281 342.421875 17.875 346.914062 C 16.511719 351.40625 15.234375 355.921875 14.035156 360.460938 C 12.839844 365.003906 11.726562 369.5625 10.699219 374.144531 C 9.671875 378.722656 8.726562 383.324219 7.867188 387.9375 C 7.007812 392.554688 6.234375 397.183594 5.546875 401.828125 C 4.855469 406.472656 4.253906 411.125 3.734375 415.792969 C 3.21875 420.460938 2.785156 425.132812 2.441406 429.816406 C 2.097656 434.496094 1.835938 439.183594 1.664062 443.875 C 1.492188 448.566406 1.40625 453.261719 1.40625 457.957031 L 1.40625 600.769531 C 1.40625 602.15625 1.476562 603.539062 1.613281 604.914062 C 1.75 606.292969 1.953125 607.664062 2.226562 609.023438 C 2.496094 610.378906 2.835938 611.722656 3.238281 613.046875 C 3.640625 614.375 4.109375 615.675781 4.640625 616.957031 C 5.171875 618.234375 5.761719 619.484375 6.414062 620.707031 C 7.070312 621.929688 7.78125 623.117188 8.550781 624.265625 C 9.320312 625.417969 10.144531 626.53125 11.023438 627.601562 C 11.902344 628.671875 12.832031 629.699219 13.8125 630.675781 C 14.792969 631.65625 15.816406 632.585938 16.886719 633.464844 C 17.960938 634.34375 19.070312 635.167969 20.222656 635.9375 C 21.375 636.707031 22.5625 637.421875 23.78125 638.074219 C 25.003906 638.726562 26.253906 639.320312 27.535156 639.851562 C 28.8125 640.382812 30.117188 640.847656 31.441406 641.253906 C 32.765625 641.65625 34.109375 641.992188 35.46875 642.265625 C 36.824219 642.535156 38.195312 642.738281 39.574219 642.878906 C 40.953125 643.015625 42.332031 643.082031 43.71875 643.085938 L 56.300781 643.085938 C 70.234375 689.3125 125.292969 722.632812 173.519531 722.632812 L 211.886719 722.632812 C 212.992188 722.628906 214.09375 722.574219 215.195312 722.464844 C 216.296875 722.355469 217.386719 722.195312 218.472656 721.976562 C 219.554688 721.761719 220.625 721.492188 221.683594 721.171875 C 222.742188 720.847656 223.78125 720.476562 224.800781 720.054688 C 225.824219 719.628906 226.820312 719.15625 227.796875 718.636719 C 228.769531 718.113281 229.71875 717.546875 230.636719 716.929688 C 231.554688 716.316406 232.441406 715.660156 233.296875 714.957031 C 234.152344 714.257812 234.96875 713.515625 235.75 712.734375 C 236.53125 711.953125 237.273438 711.132812 237.976562 710.277344 C 238.675781 709.425781 239.335938 708.539062 239.949219 707.617188 C 240.5625 706.699219 241.132812 705.753906 241.652344 704.777344 C 242.175781 703.804688 242.648438 702.804688 243.070312 701.785156 C 243.492188 700.761719 243.867188 699.722656 244.1875 698.664062 C 244.507812 697.609375 244.777344 696.535156 244.996094 695.453125 C 245.210938 694.367188 245.375 693.277344 245.484375 692.175781 C 245.59375 691.078125 245.648438 689.972656 245.648438 688.867188 L 245.648438 428.371094 C 245.648438 427.265625 245.59375 426.160156 245.484375 425.0625 C 245.375 423.960938 245.210938 422.871094 244.996094 421.785156 C 244.777344 420.699219 244.507812 419.628906 244.1875 418.574219 C 243.867188 417.515625 243.492188 416.476562 243.070312 415.453125 C 242.648438 414.433594 242.175781 413.433594 241.652344 412.460938 C 241.132812 411.484375 240.5625 410.539062 239.949219 409.621094 C 239.335938 408.699219 238.675781 407.8125 237.976562 406.960938 C 237.273438 406.105469 236.53125 405.285156 235.75 404.503906 C 234.96875 403.722656 234.152344 402.980469 233.296875 402.28125 C 232.441406 401.578125 231.554688 400.921875 230.636719 400.308594 C 229.71875 399.691406 228.769531 399.125 227.796875 398.601562 C 226.820312 398.082031 225.824219 397.609375 224.800781 397.183594 C 223.78125 396.761719 222.742188 396.390625 221.683594 396.066406 C 220.625 395.746094 219.554688 395.476562 218.472656 395.261719 C 217.386719 395.042969 216.296875 394.882812 215.195312 394.773438 C 214.09375 394.664062 212.992188 394.609375 211.886719 394.605469 L 173.585938 394.605469 C 141.324219 394.605469 106.027344 409.464844 82.003906 433.175781 C 89.335938 286.347656 221.957031 169.011719 383.917969 169.011719 C 545.878906 169.011719 678.5 286.398438 685.828125 433.175781 C 661.808594 409.515625 626.511719 394.605469 594.25 394.605469 L 555.949219 394.605469 C 554.84375 394.609375 553.738281 394.664062 552.640625 394.773438 C 551.539062 394.882812 550.449219 395.042969 549.363281 395.261719 C 548.28125 395.476562 547.207031 395.746094 546.152344 396.066406 C 545.09375 396.390625 544.054688 396.761719 543.03125 397.183594 C 542.011719 397.609375 541.015625 398.082031 540.039062 398.601562 C 539.066406 399.125 538.117188 399.691406 537.199219 400.304688 C 536.28125 400.921875 535.394531 401.578125 534.539062 402.28125 C 533.683594 402.980469 532.867188 403.722656 532.085938 404.503906 C 531.300781 405.285156 530.5625 406.105469 529.859375 406.960938 C 529.160156 407.8125 528.5 408.699219 527.886719 409.621094 C 527.273438 410.539062 526.703125 411.484375 526.183594 412.460938 C 525.660156 413.433594 525.1875 414.433594 524.765625 415.453125 C 524.339844 416.476562 523.96875 417.515625 523.648438 418.574219 C 523.324219 419.628906 523.054688 420.699219 522.839844 421.785156 C 522.625 422.871094 522.460938 423.960938 522.351562 425.0625 C 522.242188 426.160156 522.1875 427.265625 522.1875 428.371094 L 522.1875 688.867188 C 522.1875 689.972656 522.242188 691.078125 522.351562 692.175781 C 522.460938 693.277344 522.625 694.367188 522.839844 695.453125 C 523.054688 696.535156 523.324219 697.609375 523.648438 698.664062 C 523.96875 699.722656 524.339844 700.761719 524.765625 701.785156 C 525.1875 702.804688 525.660156 703.804688 526.183594 704.777344 C 526.703125 705.753906 527.273438 706.699219 527.886719 707.617188 C 528.5 708.539062 529.160156 709.425781 529.859375 710.277344 C 530.5625 711.132812 531.300781 711.953125 532.085938 712.734375 C 532.867188 713.515625 533.683594 714.257812 534.539062 714.957031 C 535.394531 715.660156 536.28125 716.316406 537.199219 716.929688 C 538.117188 717.546875 539.066406 718.113281 540.039062 718.636719 C 541.015625 719.15625 542.011719 719.628906 543.03125 720.054688 C 544.054688 720.476562 545.09375 720.847656 546.152344 721.171875 C 547.207031 721.492188 548.28125 721.761719 549.363281 721.976562 C 550.449219 722.195312 551.539062 722.355469 552.640625 722.464844 C 553.738281 722.574219 554.84375 722.628906 555.949219 722.632812 L 594.25 722.632812 C 642.523438 722.632812 697.585938 689.265625 711.46875 643.085938 L 724.050781 643.085938 C 725.433594 643.082031 726.816406 643.015625 728.195312 642.878906 C 729.574219 642.738281 730.941406 642.535156 732.300781 642.265625 C 733.660156 641.992188 735 641.65625 736.328125 641.253906 C 737.652344 640.847656 738.957031 640.382812 740.234375 639.851562 C 741.515625 639.320312 742.765625 638.726562 743.988281 638.074219 C 745.207031 637.421875 746.394531 636.707031 747.546875 635.9375 C 748.699219 635.167969 749.808594 634.34375 750.878906 633.464844 C 751.949219 632.585938 752.976562 631.65625 753.957031 630.675781 C 754.933594 629.699219 755.863281 628.671875 756.742188 627.601562 C 757.621094 626.53125 758.449219 625.417969 759.21875 624.265625 C 759.988281 623.117188 760.699219 621.929688 761.351562 620.707031 C 762.007812 619.484375 762.597656 618.234375 763.128906 616.957031 C 763.660156 615.675781 764.128906 614.375 764.53125 613.046875 C 764.933594 611.722656 765.269531 610.378906 765.542969 609.023438 C 765.8125 607.664062 766.019531 606.292969 766.15625 604.914062 C 766.292969 603.539062 766.363281 602.15625 766.363281 600.769531 L 766.363281 457.957031 C 766.382812 451.695312 766.246094 445.433594 765.953125 439.179688 C 765.664062 432.925781 765.21875 426.679688 764.617188 420.449219 C 764.019531 414.214844 763.265625 408 762.359375 401.804688 C 761.449219 395.609375 760.390625 389.4375 759.179688 383.292969 C 757.96875 377.152344 756.605469 371.039062 755.089844 364.964844 C 753.574219 358.886719 751.914062 352.851562 750.101562 346.859375 C 748.289062 340.863281 746.328125 334.917969 744.222656 329.023438 C 742.117188 323.125 739.863281 317.285156 737.46875 311.496094 C 735.074219 305.710938 732.539062 299.988281 729.859375 294.328125 C 727.183594 288.667969 724.367188 283.078125 721.410156 277.554688 C 718.457031 272.035156 715.367188 266.589844 712.144531 261.21875 C 708.921875 255.851562 705.566406 250.566406 702.082031 245.363281 C 698.597656 240.160156 694.988281 235.046875 691.25 230.023438 C 687.511719 225 683.652344 220.070312 679.671875 215.238281 C 675.691406 210.402344 671.589844 205.671875 667.375 201.039062 C 663.160156 196.410156 658.835938 191.886719 654.394531 187.46875 Z M 30.117188 600.769531 L 30.117188 516.46875 C 30.117188 515.574219 30.203125 514.6875 30.378906 513.8125 C 30.554688 512.9375 30.8125 512.085938 31.15625 511.257812 C 31.5 510.433594 31.917969 509.648438 32.414062 508.90625 C 32.914062 508.160156 33.476562 507.472656 34.109375 506.84375 C 34.742188 506.210938 35.429688 505.644531 36.171875 505.148438 C 36.914062 504.652344 37.699219 504.230469 38.527344 503.890625 C 39.351562 503.546875 40.203125 503.289062 41.078125 503.113281 C 41.957031 502.9375 42.839844 502.847656 43.734375 502.847656 L 52.980469 502.847656 L 52.980469 614.375 L 43.734375 614.375 C 42.84375 614.371094 41.957031 614.285156 41.082031 614.109375 C 40.207031 613.933594 39.355469 613.675781 38.53125 613.335938 C 37.703125 612.992188 36.921875 612.574219 36.175781 612.078125 C 35.433594 611.582031 34.746094 611.015625 34.117188 610.386719 C 33.484375 609.753906 32.917969 609.066406 32.421875 608.324219 C 31.925781 607.582031 31.503906 606.800781 31.160156 605.972656 C 30.816406 605.148438 30.558594 604.300781 30.382812 603.421875 C 30.207031 602.546875 30.117188 601.664062 30.117188 600.769531 Z M 216.957031 428.371094 L 216.957031 688.867188 C 216.957031 689.199219 216.921875 689.53125 216.859375 689.855469 C 216.792969 690.183594 216.695312 690.5 216.570312 690.808594 C 216.441406 691.117188 216.285156 691.40625 216.101562 691.683594 C 215.917969 691.960938 215.707031 692.21875 215.46875 692.453125 C 215.234375 692.6875 214.980469 692.898438 214.703125 693.082031 C 214.425781 693.269531 214.132812 693.421875 213.828125 693.550781 C 213.519531 693.679688 213.203125 693.773438 212.875 693.839844 C 212.550781 693.90625 212.21875 693.9375 211.886719 693.9375 L 187.929688 693.9375 L 187.929688 423.300781 L 211.886719 423.300781 C 212.21875 423.300781 212.550781 423.332031 212.875 423.398438 C 213.203125 423.464844 213.519531 423.558594 213.828125 423.6875 C 214.132812 423.8125 214.425781 423.96875 214.703125 424.15625 C 214.980469 424.339844 215.234375 424.550781 215.46875 424.785156 C 215.707031 425.019531 215.917969 425.277344 216.101562 425.554688 C 216.285156 425.832031 216.441406 426.121094 216.570312 426.429688 C 216.695312 426.738281 216.792969 427.054688 216.859375 427.382812 C 216.921875 427.707031 216.957031 428.035156 216.957031 428.371094 Z M 159.171875 424.574219 L 159.171875 692.664062 C 121.332031 686.195312 81.574219 655.667969 81.574219 620.714844 L 81.574219 496.523438 C 81.660156 461.570312 121.414062 431.042969 159.238281 424.574219 Z M 617.496094 229.40625 C 555.039062 171.933594 472.078125 140.25 383.917969 140.25 C 295.753906 140.25 212.777344 171.898438 150.339844 229.40625 C 87.601562 287.191406 52.933594 364.113281 52.933594 446.003906 L 52.933594 474.167969 L 43.6875 474.167969 C 39.019531 474.167969 34.480469 474.921875 30.066406 476.429688 L 30.066406 457.957031 C 30.066406 262.855469 188.789062 104.140625 383.867188 104.140625 C 578.945312 104.140625 737.671875 262.871094 737.671875 457.957031 L 737.671875 476.429688 C 733.253906 474.921875 728.714844 474.167969 724.050781 474.167969 L 714.804688 474.167969 L 714.804688 446.003906 C 714.871094 364.113281 680.28125 287.191406 617.496094 229.40625 Z M 550.878906 688.867188 L 550.878906 428.371094 C 550.878906 428.035156 550.914062 427.707031 550.976562 427.382812 C 551.042969 427.054688 551.136719 426.738281 551.265625 426.429688 C 551.394531 426.121094 551.550781 425.832031 551.734375 425.554688 C 551.917969 425.277344 552.128906 425.019531 552.363281 424.785156 C 552.597656 424.550781 552.855469 424.339844 553.132812 424.15625 C 553.410156 423.96875 553.699219 423.8125 554.007812 423.6875 C 554.316406 423.558594 554.632812 423.464844 554.960938 423.398438 C 555.285156 423.332031 555.617188 423.300781 555.949219 423.300781 L 579.902344 423.300781 L 579.902344 693.9375 L 555.949219 693.9375 C 555.617188 693.9375 555.285156 693.90625 554.960938 693.839844 C 554.632812 693.773438 554.316406 693.679688 554.007812 693.550781 C 553.699219 693.421875 553.410156 693.269531 553.132812 693.082031 C 552.855469 692.898438 552.597656 692.6875 552.363281 692.453125 C 552.128906 692.21875 551.917969 691.960938 551.734375 691.683594 C 551.550781 691.40625 551.394531 691.117188 551.265625 690.808594 C 551.136719 690.5 551.042969 690.183594 550.976562 689.855469 C 550.914062 689.53125 550.878906 689.199219 550.878906 688.867188 Z M 608.664062 692.664062 L 608.664062 424.574219 C 646.503906 431.042969 686.257812 461.570312 686.257812 496.523438 L 686.257812 620.714844 C 686.175781 655.667969 646.421875 686.195312 608.597656 692.664062 Z M 737.785156 600.753906 C 737.785156 601.648438 737.695312 602.53125 737.519531 603.410156 C 737.347656 604.285156 737.085938 605.136719 736.746094 605.964844 C 736.402344 606.789062 735.980469 607.574219 735.484375 608.316406 C 734.988281 609.058594 734.421875 609.746094 733.792969 610.378906 C 733.160156 611.011719 732.472656 611.578125 731.726562 612.074219 C 730.984375 612.570312 730.199219 612.992188 729.375 613.332031 C 728.550781 613.675781 727.699219 613.933594 726.820312 614.109375 C 725.945312 614.285156 725.058594 614.371094 724.164062 614.375 L 714.917969 614.375 L 714.917969 502.863281 L 724.164062 502.863281 C 725.058594 502.863281 725.945312 502.953125 726.820312 503.128906 C 727.699219 503.304688 728.550781 503.5625 729.375 503.90625 C 730.199219 504.246094 730.984375 504.667969 731.726562 505.164062 C 732.472656 505.660156 733.160156 506.226562 733.792969 506.859375 C 734.421875 507.492188 734.988281 508.179688 735.484375 508.921875 C 735.980469 509.664062 736.402344 510.449219 736.746094 511.273438 C 737.085938 512.101562 737.347656 512.953125 737.519531 513.828125 C 737.695312 514.707031 737.785156 515.589844 737.785156 516.484375 L 737.785156 600.769531 Z M 737.785156 600.753906 " clip-rule="nonzero"/></clipPath><linearGradient x1="24.309998" gradientTransform="matrix(1.650967, 0, 0, 1.651024, -38.730019, -23.63096)" y1="256" x2="487.661" gradientUnits="userSpaceOnUse" y2="256" id="85f8f92c26"><stop stop-opacity="1" stop-color="rgb(97.599792%, 49.798584%, 15.299988%)" offset="0"/><stop stop-opacity="1" stop-color="rgb(97.293091%, 49.627686%, 15.621948%)" offset="0.00390625"/><stop stop-opacity="1" stop-color="rgb(96.986389%, 49.456787%, 15.945435%)" offset="0.0078125"/><stop stop-opacity="1" stop-color="rgb(96.679688%, 49.284363%, 16.267395%)" offset="0.0117188"/><stop stop-opacity="1" stop-color="rgb(96.374512%, 49.113464%, 16.590881%)" offset="0.015625"/><stop stop-opacity="1" stop-color="rgb(96.06781%, 48.94104%, 16.914368%)" offset="0.0195312"/><stop stop-opacity="1" stop-color="rgb(95.761108%, 48.770142%, 17.237854%)" offset="0.0234375"/><stop stop-opacity="1" stop-color="rgb(95.454407%, 48.597717%, 17.559814%)" offset="0.0273438"/><stop stop-opacity="1" stop-color="rgb(95.149231%, 48.426819%, 17.883301%)" offset="0.03125"/><stop stop-opacity="1" stop-color="rgb(94.842529%, 48.25592%, 18.205261%)" offset="0.0351562"/><stop stop-opacity="1" stop-color="rgb(94.537354%, 48.085022%, 18.528748%)" offset="0.0390625"/><stop stop-opacity="1" stop-color="rgb(94.230652%, 47.912598%, 18.852234%)" offset="0.0429688"/><stop stop-opacity="1" stop-color="rgb(93.92395%, 47.741699%, 19.17572%)" offset="0.046875"/><stop stop-opacity="1" stop-color="rgb(93.617249%, 47.569275%, 19.497681%)" offset="0.0507812"/><stop stop-opacity="1" stop-color="rgb(93.312073%, 47.398376%, 19.821167%)" offset="0.0546875"/><stop stop-opacity="1" stop-color="rgb(93.005371%, 47.225952%, 20.144653%)" offset="0.0585938"/><stop stop-opacity="1" stop-color="rgb(92.700195%, 47.055054%, 20.46814%)" offset="0.0625"/><stop stop-opacity="1" stop-color="rgb(92.393494%, 46.884155%, 20.7901%)" offset="0.0664062"/><stop stop-opacity="1" stop-color="rgb(92.086792%, 46.713257%, 21.113586%)" offset="0.0703125"/><stop stop-opacity="1" stop-color="rgb(91.78009%, 46.540833%, 21.435547%)" offset="0.0742188"/><stop stop-opacity="1" stop-color="rgb(91.474915%, 46.369934%, 21.759033%)" offset="0.078125"/><stop stop-opacity="1" stop-color="rgb(91.168213%, 46.19751%, 22.08252%)" offset="0.0820312"/><stop stop-opacity="1" stop-color="rgb(90.861511%, 46.026611%, 22.406006%)" offset="0.0859375"/><stop stop-opacity="1" stop-color="rgb(90.55481%, 45.854187%, 22.727966%)" offset="0.0898438"/><stop stop-opacity="1" stop-color="rgb(90.249634%, 45.683289%, 23.051453%)" offset="0.09375"/><stop stop-opacity="1" stop-color="rgb(89.942932%, 45.51239%, 23.374939%)" offset="0.0976562"/><stop stop-opacity="1" stop-color="rgb(89.637756%, 45.341492%, 23.698425%)" offset="0.101562"/><stop stop-opacity="1" stop-color="rgb(89.331055%, 45.169067%, 24.020386%)" offset="0.105469"/><stop stop-opacity="1" stop-color="rgb(89.024353%, 44.998169%, 24.343872%)" offset="0.109375"/><stop stop-opacity="1" stop-color="rgb(88.717651%, 44.825745%, 24.665833%)" offset="0.113281"/><stop stop-opacity="1" stop-color="rgb(88.412476%, 44.654846%, 24.989319%)" offset="0.117188"/><stop stop-opacity="1" stop-color="rgb(88.105774%, 44.482422%, 25.312805%)" offset="0.121094"/><stop stop-opacity="1" stop-color="rgb(87.800598%, 44.311523%, 25.636292%)" offset="0.125"/><stop stop-opacity="1" stop-color="rgb(87.493896%, 44.140625%, 25.958252%)" offset="0.128906"/><stop stop-opacity="1" stop-color="rgb(87.187195%, 43.969727%, 26.281738%)" offset="0.132812"/><stop stop-opacity="1" stop-color="rgb(86.880493%, 43.797302%, 26.605225%)" offset="0.136719"/><stop stop-opacity="1" stop-color="rgb(86.575317%, 43.626404%, 26.928711%)" offset="0.140625"/><stop stop-opacity="1" stop-color="rgb(86.268616%, 43.453979%, 27.250671%)" offset="0.144531"/><stop stop-opacity="1" stop-color="rgb(85.961914%, 43.283081%, 27.574158%)" offset="0.148437"/><stop stop-opacity="1" stop-color="rgb(85.655212%, 43.110657%, 27.896118%)" offset="0.152344"/><stop stop-opacity="1" stop-color="rgb(85.350037%, 42.939758%, 28.219604%)" offset="0.15625"/><stop stop-opacity="1" stop-color="rgb(85.043335%, 42.76886%, 28.543091%)" offset="0.160156"/><stop stop-opacity="1" stop-color="rgb(84.738159%, 42.597961%, 28.866577%)" offset="0.164062"/><stop stop-opacity="1" stop-color="rgb(84.431458%, 42.425537%, 29.188538%)" offset="0.167969"/><stop stop-opacity="1" stop-color="rgb(84.124756%, 42.254639%, 29.512024%)" offset="0.171875"/><stop stop-opacity="1" stop-color="rgb(83.818054%, 42.082214%, 29.83551%)" offset="0.175781"/><stop stop-opacity="1" stop-color="rgb(83.512878%, 41.911316%, 30.158997%)" offset="0.179687"/><stop stop-opacity="1" stop-color="rgb(83.206177%, 41.738892%, 30.480957%)" offset="0.183594"/><stop stop-opacity="1" stop-color="rgb(82.899475%, 41.567993%, 30.804443%)" offset="0.1875"/><stop stop-opacity="1" stop-color="rgb(82.592773%, 41.397095%, 31.126404%)" offset="0.191406"/><stop stop-opacity="1" stop-color="rgb(82.287598%, 41.226196%, 31.44989%)" offset="0.195312"/><stop stop-opacity="1" stop-color="rgb(81.980896%, 41.053772%, 31.773376%)" offset="0.199219"/><stop stop-opacity="1" stop-color="rgb(81.67572%, 40.882874%, 32.096863%)" offset="0.203125"/><stop stop-opacity="1" stop-color="rgb(81.369019%, 40.710449%, 32.418823%)" offset="0.207031"/><stop stop-opacity="1" stop-color="rgb(81.062317%, 40.539551%, 32.74231%)" offset="0.210937"/><stop stop-opacity="1" stop-color="rgb(80.755615%, 40.367126%, 33.065796%)" offset="0.214844"/><stop stop-opacity="1" stop-color="rgb(80.450439%, 40.196228%, 33.389282%)" offset="0.21875"/><stop stop-opacity="1" stop-color="rgb(80.143738%, 40.02533%, 33.711243%)" offset="0.222656"/><stop stop-opacity="1" stop-color="rgb(79.838562%, 39.854431%, 34.034729%)" offset="0.226562"/><stop stop-opacity="1" stop-color="rgb(79.53186%, 39.682007%, 34.356689%)" offset="0.230469"/><stop stop-opacity="1" stop-color="rgb(79.225159%, 39.511108%, 34.680176%)" offset="0.234375"/><stop stop-opacity="1" stop-color="rgb(78.918457%, 39.338684%, 35.003662%)" offset="0.238281"/><stop stop-opacity="1" stop-color="rgb(78.613281%, 39.167786%, 35.327148%)" offset="0.242187"/><stop stop-opacity="1" stop-color="rgb(78.30658%, 38.995361%, 35.649109%)" offset="0.246094"/><stop stop-opacity="1" stop-color="rgb(77.999878%, 38.824463%, 35.972595%)" offset="0.25"/><stop stop-opacity="1" stop-color="rgb(77.693176%, 38.653564%, 36.296082%)" offset="0.253906"/><stop stop-opacity="1" stop-color="rgb(77.388%, 38.482666%, 36.619568%)" offset="0.257812"/><stop stop-opacity="1" stop-color="rgb(77.081299%, 38.310242%, 36.941528%)" offset="0.261719"/><stop stop-opacity="1" stop-color="rgb(76.776123%, 38.139343%, 37.265015%)" offset="0.265625"/><stop stop-opacity="1" stop-color="rgb(76.469421%, 37.966919%, 37.586975%)" offset="0.269531"/><stop stop-opacity="1" stop-color="rgb(76.16272%, 37.796021%, 37.910461%)" offset="0.273437"/><stop stop-opacity="1" stop-color="rgb(75.856018%, 37.623596%, 38.233948%)" offset="0.277344"/><stop stop-opacity="1" stop-color="rgb(75.550842%, 37.452698%, 38.557434%)" offset="0.28125"/><stop stop-opacity="1" stop-color="rgb(75.244141%, 37.281799%, 38.879395%)" offset="0.285156"/><stop stop-opacity="1" stop-color="rgb(74.937439%, 37.110901%, 39.202881%)" offset="0.289062"/><stop stop-opacity="1" stop-color="rgb(74.630737%, 36.938477%, 39.526367%)" offset="0.292969"/><stop stop-opacity="1" stop-color="rgb(74.325562%, 36.767578%, 39.849854%)" offset="0.296875"/><stop stop-opacity="1" stop-color="rgb(74.01886%, 36.595154%, 40.171814%)" offset="0.300781"/><stop stop-opacity="1" stop-color="rgb(73.713684%, 36.424255%, 40.4953%)" offset="0.304688"/><stop stop-opacity="1" stop-color="rgb(73.406982%, 36.251831%, 40.817261%)" offset="0.308594"/><stop stop-opacity="1" stop-color="rgb(73.100281%, 36.080933%, 41.140747%)" offset="0.3125"/><stop stop-opacity="1" stop-color="rgb(72.793579%, 35.910034%, 41.464233%)" offset="0.316406"/><stop stop-opacity="1" stop-color="rgb(72.488403%, 35.739136%, 41.78772%)" offset="0.320312"/><stop stop-opacity="1" stop-color="rgb(72.181702%, 35.566711%, 42.10968%)" offset="0.324219"/><stop stop-opacity="1" stop-color="rgb(71.876526%, 35.395813%, 42.433167%)" offset="0.328125"/><stop stop-opacity="1" stop-color="rgb(71.569824%, 35.223389%, 42.756653%)" offset="0.332031"/><stop stop-opacity="1" stop-color="rgb(71.263123%, 35.05249%, 43.080139%)" offset="0.335937"/><stop stop-opacity="1" stop-color="rgb(70.956421%, 34.880066%, 43.4021%)" offset="0.339844"/><stop stop-opacity="1" stop-color="rgb(70.651245%, 34.709167%, 43.725586%)" offset="0.34375"/><stop stop-opacity="1" stop-color="rgb(70.344543%, 34.538269%, 44.047546%)" offset="0.347656"/><stop stop-opacity="1" stop-color="rgb(70.037842%, 34.367371%, 44.371033%)" offset="0.351562"/><stop stop-opacity="1" stop-color="rgb(69.73114%, 34.194946%, 44.694519%)" offset="0.355469"/><stop stop-opacity="1" stop-color="rgb(69.425964%, 34.024048%, 45.018005%)" offset="0.359375"/><stop stop-opacity="1" stop-color="rgb(69.119263%, 33.851624%, 45.339966%)" offset="0.363281"/><stop stop-opacity="1" stop-color="rgb(68.814087%, 33.680725%, 45.663452%)" offset="0.367188"/><stop stop-opacity="1" stop-color="rgb(68.507385%, 33.508301%, 45.986938%)" offset="0.371094"/><stop stop-opacity="1" stop-color="rgb(68.200684%, 33.337402%, 46.310425%)" offset="0.375"/><stop stop-opacity="1" stop-color="rgb(67.893982%, 33.164978%, 46.632385%)" offset="0.378906"/><stop stop-opacity="1" stop-color="rgb(67.588806%, 32.99408%, 46.955872%)" offset="0.382812"/><stop stop-opacity="1" stop-color="rgb(67.282104%, 32.823181%, 47.277832%)" offset="0.386719"/><stop stop-opacity="1" stop-color="rgb(66.975403%, 32.652283%, 47.601318%)" offset="0.390625"/><stop stop-opacity="1" stop-color="rgb(66.668701%, 32.479858%, 47.924805%)" offset="0.394531"/><stop stop-opacity="1" stop-color="rgb(66.363525%, 32.30896%, 48.248291%)" offset="0.398437"/><stop stop-opacity="1" stop-color="rgb(66.056824%, 32.136536%, 48.570251%)" offset="0.402344"/><stop stop-opacity="1" stop-color="rgb(65.751648%, 31.965637%, 48.893738%)" offset="0.40625"/><stop stop-opacity="1" stop-color="rgb(65.444946%, 31.793213%, 49.217224%)" offset="0.410156"/><stop stop-opacity="1" stop-color="rgb(65.138245%, 31.622314%, 49.54071%)" offset="0.414063"/><stop stop-opacity="1" stop-color="rgb(64.831543%, 31.451416%, 49.862671%)" offset="0.417969"/><stop stop-opacity="1" stop-color="rgb(64.526367%, 31.280518%, 50.186157%)" offset="0.421875"/><stop stop-opacity="1" stop-color="rgb(64.219666%, 31.108093%, 50.508118%)" offset="0.425781"/><stop stop-opacity="1" stop-color="rgb(63.91449%, 30.937195%, 50.831604%)" offset="0.429688"/><stop stop-opacity="1" stop-color="rgb(63.607788%, 30.764771%, 51.15509%)" offset="0.433594"/><stop stop-opacity="1" stop-color="rgb(63.301086%, 30.593872%, 51.478577%)" offset="0.4375"/><stop stop-opacity="1" stop-color="rgb(62.994385%, 30.421448%, 51.800537%)" offset="0.441406"/><stop stop-opacity="1" stop-color="rgb(62.689209%, 30.250549%, 52.124023%)" offset="0.445312"/><stop stop-opacity="1" stop-color="rgb(62.382507%, 30.079651%, 52.44751%)" offset="0.449219"/><stop stop-opacity="1" stop-color="rgb(62.075806%, 29.908752%, 52.770996%)" offset="0.453125"/><stop stop-opacity="1" stop-color="rgb(61.769104%, 29.736328%, 53.092957%)" offset="0.457031"/><stop stop-opacity="1" stop-color="rgb(61.463928%, 29.56543%, 53.416443%)" offset="0.460937"/><stop stop-opacity="1" stop-color="rgb(61.157227%, 29.393005%, 53.738403%)" offset="0.464844"/><stop stop-opacity="1" stop-color="rgb(60.852051%, 29.222107%, 54.06189%)" offset="0.46875"/><stop stop-opacity="1" stop-color="rgb(60.545349%, 29.049683%, 54.385376%)" offset="0.472656"/><stop stop-opacity="1" stop-color="rgb(60.238647%, 28.878784%, 54.708862%)" offset="0.476562"/><stop stop-opacity="1" stop-color="rgb(59.931946%, 28.707886%, 55.030823%)" offset="0.480469"/><stop stop-opacity="1" stop-color="rgb(59.62677%, 28.536987%, 55.354309%)" offset="0.484375"/><stop stop-opacity="1" stop-color="rgb(59.320068%, 28.364563%, 55.677795%)" offset="0.488281"/><stop stop-opacity="1" stop-color="rgb(59.014893%, 28.193665%, 56.001282%)" offset="0.492187"/><stop stop-opacity="1" stop-color="rgb(58.708191%, 28.02124%, 56.323242%)" offset="0.496094"/><stop stop-opacity="1" stop-color="rgb(58.401489%, 27.850342%, 56.646729%)" offset="0.5"/><stop stop-opacity="1" stop-color="rgb(58.094788%, 27.677917%, 56.968689%)" offset="0.503906"/><stop stop-opacity="1" stop-color="rgb(57.789612%, 27.507019%, 57.292175%)" offset="0.507812"/><stop stop-opacity="1" stop-color="rgb(57.48291%, 27.336121%, 57.615662%)" offset="0.511719"/><stop stop-opacity="1" stop-color="rgb(57.176208%, 27.165222%, 57.939148%)" offset="0.515625"/><stop stop-opacity="1" stop-color="rgb(56.869507%, 26.992798%, 58.261108%)" offset="0.519531"/><stop stop-opacity="1" stop-color="rgb(56.564331%, 26.821899%, 58.584595%)" offset="0.523438"/><stop stop-opacity="1" stop-color="rgb(56.257629%, 26.649475%, 58.908081%)" offset="0.527344"/><stop stop-opacity="1" stop-color="rgb(55.952454%, 26.478577%, 59.231567%)" offset="0.53125"/><stop stop-opacity="1" stop-color="rgb(55.645752%, 26.306152%, 59.553528%)" offset="0.535156"/><stop stop-opacity="1" stop-color="rgb(55.33905%, 26.135254%, 59.877014%)" offset="0.539062"/><stop stop-opacity="1" stop-color="rgb(55.032349%, 25.964355%, 60.198975%)" offset="0.542969"/><stop stop-opacity="1" stop-color="rgb(54.727173%, 25.793457%, 60.522461%)" offset="0.546875"/><stop stop-opacity="1" stop-color="rgb(54.420471%, 25.621033%, 60.845947%)" offset="0.550781"/><stop stop-opacity="1" stop-color="rgb(54.11377%, 25.450134%, 61.169434%)" offset="0.554688"/><stop stop-opacity="1" stop-color="rgb(53.807068%, 25.27771%, 61.491394%)" offset="0.558594"/><stop stop-opacity="1" stop-color="rgb(53.501892%, 25.106812%, 61.81488%)" offset="0.5625"/><stop stop-opacity="1" stop-color="rgb(53.19519%, 24.934387%, 62.138367%)" offset="0.566406"/><stop stop-opacity="1" stop-color="rgb(52.890015%, 24.763489%, 62.461853%)" offset="0.570312"/><stop stop-opacity="1" stop-color="rgb(52.583313%, 24.59259%, 62.783813%)" offset="0.574219"/><stop stop-opacity="1" stop-color="rgb(52.276611%, 24.421692%, 63.1073%)" offset="0.578125"/><stop stop-opacity="1" stop-color="rgb(51.96991%, 24.249268%, 63.42926%)" offset="0.582031"/><stop stop-opacity="1" stop-color="rgb(51.664734%, 24.078369%, 63.752747%)" offset="0.585938"/><stop stop-opacity="1" stop-color="rgb(51.358032%, 23.905945%, 64.076233%)" offset="0.589844"/><stop stop-opacity="1" stop-color="rgb(51.052856%, 23.735046%, 64.399719%)" offset="0.59375"/><stop stop-opacity="1" stop-color="rgb(50.746155%, 23.562622%, 64.72168%)" offset="0.597656"/><stop stop-opacity="1" stop-color="rgb(50.439453%, 23.391724%, 65.045166%)" offset="0.601562"/><stop stop-opacity="1" stop-color="rgb(50.132751%, 23.220825%, 65.368652%)" offset="0.605469"/><stop stop-opacity="1" stop-color="rgb(49.827576%, 23.049927%, 65.692139%)" offset="0.609375"/><stop stop-opacity="1" stop-color="rgb(49.520874%, 22.877502%, 66.014099%)" offset="0.613281"/><stop stop-opacity="1" stop-color="rgb(49.214172%, 22.706604%, 66.337585%)" offset="0.617188"/><stop stop-opacity="1" stop-color="rgb(48.907471%, 22.53418%, 66.659546%)" offset="0.621094"/><stop stop-opacity="1" stop-color="rgb(48.602295%, 22.363281%, 66.983032%)" offset="0.625"/><stop stop-opacity="1" stop-color="rgb(48.295593%, 22.190857%, 67.306519%)" offset="0.628906"/><stop stop-opacity="1" stop-color="rgb(47.990417%, 22.019958%, 67.630005%)" offset="0.632812"/><stop stop-opacity="1" stop-color="rgb(47.683716%, 21.84906%, 67.951965%)" offset="0.636719"/><stop stop-opacity="1" stop-color="rgb(47.377014%, 21.678162%, 68.275452%)" offset="0.640625"/><stop stop-opacity="1" stop-color="rgb(47.070312%, 21.505737%, 68.598938%)" offset="0.644531"/><stop stop-opacity="1" stop-color="rgb(46.765137%, 21.334839%, 68.922424%)" offset="0.648437"/><stop stop-opacity="1" stop-color="rgb(46.458435%, 21.162415%, 69.244385%)" offset="0.652344"/><stop stop-opacity="1" stop-color="rgb(46.151733%, 20.991516%, 69.567871%)" offset="0.65625"/><stop stop-opacity="1" stop-color="rgb(45.845032%, 20.819092%, 69.889832%)" offset="0.660156"/><stop stop-opacity="1" stop-color="rgb(45.539856%, 20.648193%, 70.213318%)" offset="0.664062"/><stop stop-opacity="1" stop-color="rgb(45.233154%, 20.477295%, 70.536804%)" offset="0.667969"/><stop stop-opacity="1" stop-color="rgb(44.927979%, 20.306396%, 70.860291%)" offset="0.671875"/><stop stop-opacity="1" stop-color="rgb(44.621277%, 20.133972%, 71.182251%)" offset="0.675781"/><stop stop-opacity="1" stop-color="rgb(44.314575%, 19.963074%, 71.505737%)" offset="0.679688"/><stop stop-opacity="1" stop-color="rgb(44.007874%, 19.790649%, 71.827698%)" offset="0.683594"/><stop stop-opacity="1" stop-color="rgb(43.702698%, 19.619751%, 72.151184%)" offset="0.6875"/><stop stop-opacity="1" stop-color="rgb(43.395996%, 19.447327%, 72.47467%)" offset="0.691406"/><stop stop-opacity="1" stop-color="rgb(43.09082%, 19.276428%, 72.798157%)" offset="0.695312"/><stop stop-opacity="1" stop-color="rgb(42.784119%, 19.10553%, 73.120117%)" offset="0.699219"/><stop stop-opacity="1" stop-color="rgb(42.477417%, 18.934631%, 73.443604%)" offset="0.703125"/><stop stop-opacity="1" stop-color="rgb(42.170715%, 18.762207%, 73.76709%)" offset="0.707031"/><stop stop-opacity="1" stop-color="rgb(41.86554%, 18.591309%, 74.090576%)" offset="0.710938"/><stop stop-opacity="1" stop-color="rgb(41.558838%, 18.418884%, 74.412537%)" offset="0.714844"/><stop stop-opacity="1" stop-color="rgb(41.252136%, 18.247986%, 74.736023%)" offset="0.71875"/><stop stop-opacity="1" stop-color="rgb(40.945435%, 18.075562%, 75.057983%)" offset="0.722656"/><stop stop-opacity="1" stop-color="rgb(40.640259%, 17.904663%, 75.38147%)" offset="0.726562"/><stop stop-opacity="1" stop-color="rgb(40.333557%, 17.733765%, 75.704956%)" offset="0.730469"/><stop stop-opacity="1" stop-color="rgb(40.028381%, 17.562866%, 76.028442%)" offset="0.734375"/><stop stop-opacity="1" stop-color="rgb(39.72168%, 17.390442%, 76.350403%)" offset="0.738281"/><stop stop-opacity="1" stop-color="rgb(39.414978%, 17.219543%, 76.673889%)" offset="0.742188"/><stop stop-opacity="1" stop-color="rgb(39.108276%, 17.047119%, 76.997375%)" offset="0.746094"/><stop stop-opacity="1" stop-color="rgb(38.803101%, 16.876221%, 77.320862%)" offset="0.75"/><stop stop-opacity="1" stop-color="rgb(38.496399%, 16.703796%, 77.642822%)" offset="0.753906"/><stop stop-opacity="1" stop-color="rgb(38.189697%, 16.532898%, 77.966309%)" offset="0.757812"/><stop stop-opacity="1" stop-color="rgb(37.882996%, 16.362%, 78.288269%)" offset="0.761719"/><stop stop-opacity="1" stop-color="rgb(37.57782%, 16.191101%, 78.611755%)" offset="0.765625"/><stop stop-opacity="1" stop-color="rgb(37.271118%, 16.018677%, 78.935242%)" offset="0.769531"/><stop stop-opacity="1" stop-color="rgb(36.965942%, 15.847778%, 79.258728%)" offset="0.773437"/><stop stop-opacity="1" stop-color="rgb(36.659241%, 15.675354%, 79.580688%)" offset="0.777344"/><stop stop-opacity="1" stop-color="rgb(36.352539%, 15.504456%, 79.904175%)" offset="0.78125"/><stop stop-opacity="1" stop-color="rgb(36.045837%, 15.332031%, 80.227661%)" offset="0.785156"/><stop stop-opacity="1" stop-color="rgb(35.740662%, 15.161133%, 80.551147%)" offset="0.789062"/><stop stop-opacity="1" stop-color="rgb(35.43396%, 14.990234%, 80.873108%)" offset="0.792969"/><stop stop-opacity="1" stop-color="rgb(35.128784%, 14.819336%, 81.196594%)" offset="0.796875"/><stop stop-opacity="1" stop-color="rgb(34.822083%, 14.646912%, 81.518555%)" offset="0.800781"/><stop stop-opacity="1" stop-color="rgb(34.515381%, 14.476013%, 81.842041%)" offset="0.804688"/><stop stop-opacity="1" stop-color="rgb(34.208679%, 14.303589%, 82.165527%)" offset="0.808594"/><stop stop-opacity="1" stop-color="rgb(33.903503%, 14.13269%, 82.489014%)" offset="0.8125"/><stop stop-opacity="1" stop-color="rgb(33.596802%, 13.960266%, 82.810974%)" offset="0.816406"/><stop stop-opacity="1" stop-color="rgb(33.2901%, 13.789368%, 83.13446%)" offset="0.820312"/><stop stop-opacity="1" stop-color="rgb(32.983398%, 13.618469%, 83.457947%)" offset="0.824219"/><stop stop-opacity="1" stop-color="rgb(32.678223%, 13.447571%, 83.781433%)" offset="0.828125"/><stop stop-opacity="1" stop-color="rgb(32.371521%, 13.275146%, 84.103394%)" offset="0.832031"/><stop stop-opacity="1" stop-color="rgb(32.066345%, 13.104248%, 84.42688%)" offset="0.835938"/><stop stop-opacity="1" stop-color="rgb(31.759644%, 12.931824%, 84.74884%)" offset="0.839844"/><stop stop-opacity="1" stop-color="rgb(31.452942%, 12.760925%, 85.072327%)" offset="0.84375"/><stop stop-opacity="1" stop-color="rgb(31.14624%, 12.588501%, 85.395813%)" offset="0.847656"/><stop stop-opacity="1" stop-color="rgb(30.841064%, 12.417603%, 85.719299%)" offset="0.851562"/><stop stop-opacity="1" stop-color="rgb(30.534363%, 12.245178%, 86.04126%)" offset="0.855469"/><stop stop-opacity="1" stop-color="rgb(30.229187%, 12.07428%, 86.364746%)" offset="0.859375"/><stop stop-opacity="1" stop-color="rgb(29.922485%, 11.903381%, 86.688232%)" offset="0.863281"/><stop stop-opacity="1" stop-color="rgb(29.615784%, 11.732483%, 87.011719%)" offset="0.867188"/><stop stop-opacity="1" stop-color="rgb(29.309082%, 11.560059%, 87.333679%)" offset="0.871094"/><stop stop-opacity="1" stop-color="rgb(29.003906%, 11.38916%, 87.657166%)" offset="0.875"/><stop stop-opacity="1" stop-color="rgb(28.697205%, 11.216736%, 87.979126%)" offset="0.878906"/><stop stop-opacity="1" stop-color="rgb(28.390503%, 11.045837%, 88.302612%)" offset="0.882812"/><stop stop-opacity="1" stop-color="rgb(28.083801%, 10.873413%, 88.626099%)" offset="0.886719"/><stop stop-opacity="1" stop-color="rgb(27.778625%, 10.702515%, 88.949585%)" offset="0.890625"/><stop stop-opacity="1" stop-color="rgb(27.471924%, 10.531616%, 89.271545%)" offset="0.894531"/><stop stop-opacity="1" stop-color="rgb(27.166748%, 10.360718%, 89.595032%)" offset="0.898438"/><stop stop-opacity="1" stop-color="rgb(26.860046%, 10.188293%, 89.918518%)" offset="0.902344"/><stop stop-opacity="1" stop-color="rgb(26.553345%, 10.017395%, 90.242004%)" offset="0.90625"/><stop stop-opacity="1" stop-color="rgb(26.246643%, 9.844971%, 90.563965%)" offset="0.910156"/><stop stop-opacity="1" stop-color="rgb(25.941467%, 9.674072%, 90.887451%)" offset="0.914062"/><stop stop-opacity="1" stop-color="rgb(25.634766%, 9.501648%, 91.209412%)" offset="0.917969"/><stop stop-opacity="1" stop-color="rgb(25.328064%, 9.33075%, 91.532898%)" offset="0.921875"/><stop stop-opacity="1" stop-color="rgb(25.021362%, 9.159851%, 91.856384%)" offset="0.925781"/><stop stop-opacity="1" stop-color="rgb(24.716187%, 8.988953%, 92.179871%)" offset="0.929688"/><stop stop-opacity="1" stop-color="rgb(24.409485%, 8.816528%, 92.501831%)" offset="0.933594"/><stop stop-opacity="1" stop-color="rgb(24.104309%, 8.64563%, 92.825317%)" offset="0.9375"/><stop stop-opacity="1" stop-color="rgb(23.797607%, 8.473206%, 93.148804%)" offset="0.941406"/><stop stop-opacity="1" stop-color="rgb(23.490906%, 8.302307%, 93.47229%)" offset="0.945312"/><stop stop-opacity="1" stop-color="rgb(23.184204%, 8.129883%, 93.79425%)" offset="0.949219"/><stop stop-opacity="1" stop-color="rgb(22.879028%, 7.958984%, 94.117737%)" offset="0.953125"/><stop stop-opacity="1" stop-color="rgb(22.572327%, 7.788086%, 94.439697%)" offset="0.957031"/><stop stop-opacity="1" stop-color="rgb(22.267151%, 7.617188%, 94.763184%)" offset="0.960938"/><stop stop-opacity="1" stop-color="rgb(21.960449%, 7.444763%, 95.08667%)" offset="0.964844"/><stop stop-opacity="1" stop-color="rgb(21.653748%, 7.273865%, 95.410156%)" offset="0.96875"/><stop stop-opacity="1" stop-color="rgb(21.347046%, 7.10144%, 95.732117%)" offset="0.972656"/><stop stop-opacity="1" stop-color="rgb(21.04187%, 6.930542%, 96.055603%)" offset="0.976562"/><stop stop-opacity="1" stop-color="rgb(20.735168%, 6.758118%, 96.379089%)" offset="0.980469"/><stop stop-opacity="1" stop-color="rgb(20.428467%, 6.587219%, 96.702576%)" offset="0.984375"/><stop stop-opacity="1" stop-color="rgb(20.121765%, 6.416321%, 97.024536%)" offset="0.988281"/><stop stop-opacity="1" stop-color="rgb(19.816589%, 6.245422%, 97.348022%)" offset="0.992188"/><stop stop-opacity="1" stop-color="rgb(19.509888%, 6.072998%, 97.669983%)" offset="0.996094"/><stop stop-opacity="1" stop-color="rgb(19.204712%, 5.9021%, 97.993469%)" offset="1"/></linearGradient></defs><g clip-path="url(#e1b99bf6e8)"><g clip-path="url(#fe040bf89b)"><path fill="url(#85f8f92c26)" d="M 1.40625 75.398438 L 1.40625 722.632812 L 766.382812 722.632812 L 766.382812 75.398438 Z M 1.40625 75.398438 " fill-rule="nonzero"/></g></g></svg>